<svg width="26" height="26" viewBox="0 0 26 26" fill="none" xmlns="http://www.w3.org/2000/svg">
<g clip-path="url(#clip0_33_2419)">
<path d="M6.63002 1.03999C6.63002 0.701986 6.37002 0.441986 6.03202 0.441986C5.69402 0.441986 5.43402 0.701986 5.43402 1.03999V2.36599H6.65602V1.03999H6.63002ZM6.03202 8.91799C7.67002 8.91799 9.02202 7.59199 9.02202 5.92799C9.02202 4.28999 7.69602 2.93799 6.03202 2.93799C4.39402 2.93799 3.04202 4.26399 3.04202 5.92799C3.04202 7.59199 4.36802 8.91799 6.03202 8.91799ZM10.114 3.04199C10.348 2.80799 10.348 2.41799 10.114 2.18399C9.88002 1.94999 9.49002 1.94999 9.25602 2.18399L8.32002 3.14599L9.17802 4.00399L10.114 3.04199ZM8.32002 8.73599L9.25602 9.67199C9.49002 9.90599 9.88002 9.90599 10.114 9.67199C10.348 9.43799 10.348 9.04799 10.114 8.81399L9.17802 7.87799L8.32002 8.73599ZM9.56802 6.55199H10.894C11.232 6.55199 11.492 6.29199 11.492 5.95399C11.492 5.61599 11.232 5.35599 10.894 5.35599H9.56802V6.55199ZM2.86002 4.00399L3.71802 3.14599L2.78202 2.20999C2.54802 1.97599 2.15802 1.97599 1.92402 2.20999C1.69002 2.44399 1.69002 2.83399 1.92402 3.06799L2.86002 4.00399ZM5.40802 10.842C5.40802 11.18 5.66802 11.44 6.00602 11.44C6.34402 11.44 6.60402 11.18 6.60402 10.842V9.51599H5.38202V10.842H5.40802ZM1.11802 6.55199H2.44402V5.32999H1.11802C0.78002 5.32999 0.52002 5.58999 0.52002 5.92799C0.52002 6.26599 0.78002 6.55199 1.11802 6.55199ZM1.92402 8.81399C1.69002 9.04799 1.69002 9.43799 1.92402 9.67199C2.15802 9.90599 2.54802 9.90599 2.78202 9.67199L3.71802 8.73599L2.86002 7.87799L1.92402 8.81399ZM21.944 24.518C19.24 24.518 18.408 22.958 16.12 22.958C15.86 22.958 15.574 22.984 15.288 23.01L18.278 15.392C18.694 15.34 19.188 15.418 19.708 15.626C20.462 15.912 21.008 16.38 21.19 16.822C21.242 16.978 21.424 17.03 21.58 16.978C22.022 16.77 22.75 16.796 23.478 17.082C24.024 17.29 24.492 17.602 24.752 17.94C24.908 18.122 25.22 18.07 25.272 17.836C26.234 13.962 24.18 9.87999 20.358 8.39799C16.484 6.88999 12.22 8.55399 10.348 12.09C10.244 12.298 10.426 12.558 10.66 12.532C11.076 12.454 11.622 12.532 12.168 12.74C12.896 13.026 13.442 13.494 13.624 13.936C13.676 14.092 13.858 14.144 14.014 14.092C14.456 13.884 15.184 13.91 15.912 14.196C16.432 14.404 16.874 14.69 17.134 15.002L13.884 23.244C13.364 23.348 12.844 23.478 12.246 23.608V21.606C12.246 21.32 12.142 21.06 11.934 20.878L12.844 19.968C13.052 19.76 13.052 19.448 12.844 19.24C12.636 19.032 12.324 19.032 12.116 19.24L9.30802 22.1H4.86202C4.13402 22.1 3.53602 22.698 3.53602 23.426V24.44C1.63802 24.674 0.52002 25.09 0.52002 25.558H25.48C25.48 25.558 24.648 24.518 21.944 24.518ZM16.9 13.026C16.848 13.13 16.77 13.182 16.666 13.182C16.64 13.182 16.614 13.182 16.562 13.156C16.432 13.104 16.354 12.948 16.406 12.818C16.432 12.714 17.186 10.764 19.136 9.85399C15.86 9.41199 13.858 11.674 13.78 11.778C13.728 11.83 13.65 11.856 13.572 11.856C13.52 11.856 13.442 11.83 13.39 11.804C13.286 11.7 13.26 11.544 13.364 11.44C13.39 11.414 16.016 8.42399 20.15 9.54199C20.15 9.54199 20.176 9.54199 20.176 9.56799H20.202C23.92 11.83 23.426 15.808 23.426 15.834C23.4 15.964 23.296 16.068 23.166 16.068H23.14C23.01 16.042 22.906 15.912 22.906 15.782C22.932 15.652 23.27 12.662 20.722 10.556C21.372 12.61 20.384 14.508 20.332 14.612C20.28 14.69 20.202 14.742 20.098 14.742C20.046 14.742 20.02 14.742 19.968 14.716C19.838 14.638 19.786 14.482 19.864 14.352C19.864 14.326 21.008 12.142 19.968 10.088C17.758 10.764 16.9 13 16.9 13.026ZM11.232 23.842C10.062 24.076 8.76202 24.258 7.25402 24.258C6.26602 24.258 5.38202 24.284 4.57602 24.362V23.452C4.57602 23.296 4.70602 23.166 4.86202 23.166H9.72402L9.88002 23.01L11.232 21.658V23.842Z" fill="#9CA3AF"/>
</g>
<defs>
<clipPath id="clip0_33_2419">
<rect width="26" height="26" fill="white"/>
</clipPath>
</defs>
</svg>
