<svg width="30" height="30" viewBox="0 0 30 30" fill="none" xmlns="http://www.w3.org/2000/svg">
<path d="M7.43905 7.63749C7.21405 7.63749 7.00936 7.59843 6.82499 7.51874C6.63905 7.43905 6.46874 7.18905 6.30936 6.76561C6.17655 6.58124 6.01874 6.47499 5.83436 6.44843H3.23749V5.85311H5.83436C6.01874 5.81405 6.17811 5.6953 6.30936 5.49686C6.46718 5.09999 6.63905 4.85936 6.82499 4.77343C7.00936 4.68749 7.21405 4.6453 7.43905 4.6453C7.7953 4.67186 9.38749 4.87655 12.2156 5.25936V5.53749L11.3828 5.47811V6.76718L12.2156 6.72811V7.00624C9.38749 7.39999 7.7953 7.61093 7.43905 7.63749ZM7.43905 7.65624C7.21405 7.65624 7.00936 7.61718 6.82499 7.53749C6.63905 7.4578 6.46874 7.2078 6.30936 6.78436C6.17655 6.59999 6.01874 6.49374 5.83436 6.46718H3.23749V5.87186H5.83436C6.01874 5.8328 6.17811 5.71405 6.30936 5.51561C6.46718 5.11874 6.63905 4.87811 6.82499 4.79218C7.00936 4.70624 7.21405 4.66405 7.43905 4.66405C7.7953 4.69061 9.38749 4.8953 12.2156 5.27811V5.55624L11.3828 5.49686V6.78593L12.2156 6.74686V7.02499C9.38749 7.41874 7.7953 7.63124 7.43905 7.65624ZM10.7484 24.9984L10.6891 24.9781H4.10936C4.02968 24.9391 3.9578 24.9094 3.89061 24.889C3.82499 24.8687 3.77811 24.8531 3.75155 24.8391C3.81718 24.7734 3.85311 24.7109 3.86093 24.65C3.86718 24.5906 3.87655 24.5406 3.89061 24.5015C3.90311 24.4625 3.92968 24.4297 3.9703 24.4031L4.36718 23.8484C4.10311 22.1703 3.96405 20.4719 3.95155 18.7547L3.79374 18.775C3.42343 18.775 3.23905 18.6437 3.23905 18.3781V17.1297C3.23905 15.7297 3.27186 14.3422 3.33749 12.9672C3.40311 11.8312 3.71405 10.9719 4.26874 10.3906C4.65155 10.0344 5.14686 9.85624 5.75468 9.85624C6.58749 9.85624 7.18124 10.1406 7.53905 10.7078C7.69686 10.9328 7.77655 11.1828 7.77655 11.4609L7.75624 11.639C7.82186 11.7969 7.90155 11.9437 7.99374 12.075C8.17811 12.3531 8.27186 12.6094 8.27186 12.8484C8.27186 12.9672 8.21874 13.0594 8.11249 13.1266C8.00624 13.1922 7.95468 13.2594 7.95468 13.325L7.97499 13.4234C7.96093 13.5422 7.92811 13.6516 7.87655 13.75C7.82343 13.8484 7.79686 13.9453 7.79686 14.0375V14.0969C7.90311 14.85 8.15311 15.5234 8.54999 16.1187C8.62968 16.2516 8.72186 16.3172 8.82811 16.3172C8.89374 16.3172 8.96405 16.3047 9.03593 16.2781C9.1078 16.2515 9.17811 16.239 9.24374 16.239C9.30936 16.2922 9.34218 16.3453 9.34218 16.3984C9.34218 16.5047 9.2953 16.5875 9.20311 16.6453C9.11093 16.7047 9.02499 16.7344 8.9453 16.7344L8.86561 16.7547C8.2578 16.7547 7.71561 15.9219 7.24061 14.2578C7.12186 14.1781 7.00936 14.139 6.90311 14.139C6.78436 14.139 6.69843 14.2484 6.6453 14.4656C6.59218 14.6844 6.56561 14.9187 6.56561 15.1687C6.56561 15.3797 6.59218 15.5984 6.6453 15.8234L6.70468 16.2797C6.88905 17.8516 7.08749 19.4172 7.29999 20.9766C8.1328 19.7484 8.87186 18.6703 9.5203 17.7453C9.71874 17.5469 9.93593 17.4484 10.175 17.4484C10.3344 17.4484 10.4859 17.4812 10.6312 17.5469C10.9875 17.7187 11.1656 17.9703 11.1656 18.3L11.1453 18.4578C10.4719 20.0437 9.91718 21.6812 9.48124 23.3734L10.0562 23.6109L10.9875 24.0266C11.0672 24.0922 11.1062 24.1719 11.1062 24.264C11.1062 24.4359 11.0859 24.5609 11.0469 24.6406C11.0469 24.7469 11.0172 24.8328 10.9578 24.8984C10.8969 24.9656 10.8281 24.9984 10.7484 24.9984ZM10.7484 25.0187L10.6891 24.9984H4.10936C4.02968 24.9594 3.9578 24.9297 3.89061 24.9094C3.82499 24.889 3.77811 24.8734 3.75155 24.8594C3.81718 24.7937 3.85311 24.7312 3.86093 24.6703C3.86718 24.6109 3.87655 24.5609 3.89061 24.5219C3.90311 24.4828 3.92968 24.45 3.9703 24.4234L4.36718 23.8687C4.10311 22.1906 3.96405 20.4922 3.95155 18.775L3.79374 18.7953C3.42343 18.7953 3.23905 18.6641 3.23905 18.3984V17.15C3.23905 15.75 3.27186 14.3625 3.33749 12.9875C3.40311 11.8516 3.71405 10.9922 4.26874 10.4109C4.65155 10.0547 5.14686 9.87655 5.75468 9.87655C6.58749 9.87655 7.18124 10.1609 7.53905 10.7281C7.69686 10.9531 7.77655 11.2031 7.77655 11.4812L7.75624 11.6594C7.82186 11.8172 7.90155 11.9641 7.99374 12.0953C8.17811 12.3734 8.27186 12.6297 8.27186 12.8687C8.27186 12.9875 8.21874 13.0797 8.11249 13.1469C8.00624 13.2125 7.95468 13.2797 7.95468 13.3453L7.97499 13.4437C7.96093 13.5625 7.92811 13.6719 7.87655 13.7703C7.82343 13.8687 7.79686 13.9656 7.79686 14.0578V14.1172C7.90311 14.8703 8.15311 15.5437 8.54999 16.1391C8.62968 16.2719 8.72186 16.3375 8.82811 16.3375C8.89374 16.3375 8.96405 16.325 9.03593 16.2984C9.1078 16.2719 9.17811 16.2594 9.24374 16.2594C9.30936 16.3125 9.34218 16.3656 9.34218 16.4172C9.34218 16.5234 9.2953 16.6062 9.20311 16.6656C9.11093 16.725 9.02499 16.7547 8.9453 16.7547L8.86561 16.775C8.2578 16.775 7.71561 15.9422 7.24061 14.2781C7.12186 14.1984 7.00936 14.1594 6.90311 14.1594C6.78436 14.1594 6.69843 14.2687 6.6453 14.4859C6.59218 14.7047 6.56561 14.939 6.56561 15.189C6.56561 15.4 6.59218 15.6187 6.6453 15.8437L6.70468 16.3C6.88905 17.8719 7.08749 19.4375 7.29999 20.9969C8.1328 19.7687 8.87186 18.6906 9.5203 17.7656C9.71874 17.5672 9.93593 17.4687 10.175 17.4687C10.3344 17.4687 10.4859 17.5015 10.6312 17.5672C10.9875 17.739 11.1656 17.9906 11.1656 18.3203L11.1453 18.4781C10.4719 20.0641 9.91718 21.7015 9.48124 23.3937L10.0562 23.6312L10.9875 24.0469C11.0672 24.1125 11.1062 24.1922 11.1062 24.2844C11.1062 24.4562 11.0859 24.5812 11.0469 24.6609C11.0469 24.7672 11.0172 24.8531 10.9578 24.9187C10.8969 24.9859 10.8281 25.0187 10.7484 25.0187ZM7.37968 7.02343V5.21874C6.87811 5.2453 6.62655 5.54843 6.62655 6.12968C6.62655 6.71249 6.87655 7.00936 7.37968 7.02343ZM7.37968 7.04218V5.23905C6.87811 5.26561 6.62655 5.56874 6.62655 6.14999C6.62655 6.7328 6.87655 7.02968 7.37968 7.04218ZM7.73593 7.00311L8.46874 6.96405V5.29843L7.73593 5.25936V7.00311ZM7.73593 7.02343L8.46874 6.98436V5.31874L7.73593 5.27968V7.02343ZM9.54061 14.5547L9.3828 14.5156C9.05311 14.4359 8.88749 14.325 8.88749 14.1781V14.0781C8.88749 13.9469 8.91405 13.85 8.96718 13.7906C9.0203 13.7312 9.0828 13.6844 9.15624 13.6516C9.22811 13.6187 9.29218 13.575 9.3453 13.5234L10.0781 13.7812C10.1969 13.8344 10.3297 13.8609 10.475 13.8609C10.5672 13.8609 10.6531 13.8484 10.7328 13.8219L12.1 13.2469C12.1531 13.2344 12.1859 13.1937 12.1984 13.1281C12.1984 13.0625 12.1719 13.0094 12.1187 12.9703L11.1875 12.2969C10.5406 11.8344 10.0906 11.4906 9.83905 11.2656L8.96718 10.75L8.68905 10.4719C8.55624 10.2734 8.49061 10.075 8.49061 9.87655C8.49061 9.71874 8.51717 9.61561 8.5703 9.56874C8.62343 9.52186 8.66249 9.47968 8.68905 9.44061H9.32342C9.36249 9.5203 9.41249 9.61249 9.47186 9.71874C9.53124 9.82499 9.56717 9.92342 9.58124 10.0156C9.69999 10.3859 9.80624 10.6297 9.89843 10.7484C10.0703 10.9594 10.5781 11.2641 11.425 11.6594C11.6625 11.7922 11.8937 11.9141 12.1187 12.0266C12.3437 12.1391 12.5156 12.2422 12.6344 12.3344C12.6734 12.3609 12.7062 12.3734 12.7328 12.3734C12.864 12.3734 12.9766 12.2547 13.0703 12.0172C13.1234 11.8719 13.15 11.7531 13.15 11.6609L13.2484 11.1453C13.3797 11.225 13.5062 11.3078 13.625 11.3937C13.7437 11.4797 13.8765 11.5828 14.0219 11.7016C13.9828 11.8734 13.9297 12.0656 13.8641 12.2766C13.6781 12.8047 13.5 13.175 13.3297 13.3859L13.1906 13.3266C13.1765 13.3797 13.1047 13.4422 12.9719 13.5156C12.839 13.5891 12.7469 13.6906 12.6937 13.8234C12.125 14.0484 11.5547 14.2141 10.9797 14.3187C10.4015 14.4219 9.92343 14.5016 9.54061 14.5547ZM9.54061 14.5734L9.3828 14.5344C9.05311 14.4547 8.88749 14.3437 8.88749 14.1969V14.0984C8.88749 13.9672 8.91405 13.8703 8.96718 13.8109C9.0203 13.7515 9.0828 13.7047 9.15624 13.6719C9.22811 13.6391 9.29218 13.5953 9.3453 13.5437L10.0781 13.8015C10.1969 13.8547 10.3297 13.8812 10.475 13.8812C10.5672 13.8812 10.6531 13.8687 10.7328 13.8422L12.1 13.2672C12.1531 13.2547 12.1859 13.2141 12.1984 13.1484C12.1984 13.0828 12.1719 13.0297 12.1187 12.9906L11.1875 12.3172C10.5406 11.8547 10.0906 11.5109 9.83905 11.2859L8.96718 10.7703L8.68905 10.4922C8.55624 10.2937 8.49061 10.0953 8.49061 9.89686C8.49061 9.73905 8.51717 9.63593 8.5703 9.58905C8.62343 9.54218 8.66249 9.49999 8.68905 9.46093H9.32342C9.36249 9.54061 9.41249 9.6328 9.47186 9.73905C9.53124 9.8453 9.56717 9.94374 9.58124 10.0359C9.69999 10.4062 9.80624 10.65 9.89843 10.7687C10.0703 10.9797 10.5781 11.2844 11.425 11.6797C11.6625 11.8125 11.8937 11.9344 12.1187 12.0469C12.3437 12.1594 12.5156 12.2625 12.6344 12.3547C12.6734 12.3812 12.7062 12.3937 12.7328 12.3937C12.864 12.3937 12.9766 12.275 13.0703 12.0375C13.1234 11.8922 13.15 11.7734 13.15 11.6812L13.2484 11.1656C13.3797 11.2453 13.5062 11.3281 13.625 11.4125C13.7437 11.4984 13.8765 11.6016 14.0219 11.7203C13.9828 11.8922 13.9297 12.0844 13.8641 12.2953C13.6781 12.8234 13.5 13.1937 13.3297 13.4047L13.1906 13.3453C13.1765 13.3984 13.1047 13.4609 12.9719 13.5344C12.839 13.6078 12.7469 13.7094 12.6937 13.8422C12.125 14.0672 11.5547 14.2328 10.9797 14.3375C10.4015 14.4422 9.92343 14.5219 9.54061 14.5734ZM8.88593 6.92343L9.81718 6.88436V5.37811L8.88593 5.33905V6.92343ZM8.88593 6.94374L9.81718 6.90468V5.39843L8.88593 5.35936V6.94374ZM10.2141 6.84374L11.0062 6.80468V5.45624L10.2141 5.39686V6.84374ZM10.2141 6.86405L11.0062 6.82499V5.47655L10.2141 5.41718V6.86405ZM12.0969 24.5828C12.0172 24.5828 11.9578 24.5765 11.9187 24.5625L11.9391 24.5422C12.1234 24.3703 12.4281 24.2187 12.85 24.0859C13.075 24.0062 13.2734 23.9203 13.4453 23.8281L13.564 23.7687C13.7234 23.7422 13.8875 23.5515 14.0594 23.1937L14.1781 22.9359C14.2969 22.6328 14.4359 21.9984 14.5937 21.0328C14.725 20.1734 14.8156 19.6484 14.8609 19.4578C14.9078 19.2672 14.9297 19.0953 14.9297 18.9422C14.9297 18.7906 14.9625 18.6312 15.0281 18.4672C15.0937 18.3016 15.1406 18.114 15.1672 17.9016L15.3453 16.7922C15.5172 15.7094 15.6062 15.1172 15.6125 15.0187C15.6187 14.9203 15.6297 14.8375 15.6422 14.7719C15.6422 14.7187 15.6297 14.6765 15.6031 14.6422C15.5766 14.6094 15.5109 14.5922 15.4047 14.5922C15.2984 14.5922 15.239 14.5859 15.2265 14.5719C15.2265 14.5328 15.239 14.4734 15.2656 14.3937C15.714 14.3016 16.1844 14.1562 16.6734 13.9578L16.6937 13.9375V14.175C16.7062 14.3328 16.7828 14.45 16.9219 14.5219C17.0609 14.5953 17.1797 14.6406 17.2781 14.6609C17.3766 14.6812 17.4328 14.7047 17.4469 14.7297C18.0016 14.65 18.3359 14.5937 18.4484 14.5609C18.5609 14.5281 18.6703 14.5047 18.775 14.4922V14.5125L18.7359 14.5328C18.5781 14.5328 18.4984 14.5797 18.4984 14.6719L18.6375 15.8219C18.7297 16.6547 18.7766 17.1625 18.7766 17.3484C18.7766 17.639 18.7234 18.0031 18.6172 18.4391C18.5781 18.5844 18.5578 18.6765 18.5578 18.7172C18.5578 18.8359 18.5969 18.9953 18.6765 19.1922L18.2203 21.8078C18.1547 21.2 18.0281 20.5125 17.8437 19.7469L17.6656 19.2312V18.9734L17.725 18.4984C17.725 18.3672 17.6719 18.3 17.5672 18.3H16.0812C16.0156 18.3 15.9719 18.3265 15.9515 18.3797C15.9312 18.4328 15.9156 18.5125 15.9015 18.6172L15.8031 19.3906C15.7234 20.025 15.625 20.5594 15.5062 20.9953C15.3875 21.4312 15.1562 22.0594 14.8125 22.8781C14.6797 23.2344 14.6016 23.5453 14.575 23.8094C14.5484 24.0734 14.5156 24.2453 14.4766 24.325C14.3969 24.4578 14.2187 24.5234 13.9422 24.5234C13.3734 24.5234 12.9187 24.5359 12.575 24.5625L12.0969 24.5828ZM12.0969 24.6031C12.0172 24.6031 11.9578 24.5969 11.9187 24.5828L11.9391 24.5625C12.1234 24.3906 12.4281 24.239 12.85 24.1062C13.075 24.0266 13.2734 23.9406 13.4453 23.8484L13.564 23.7891C13.7234 23.7625 13.8875 23.5703 14.0594 23.2141L14.1781 22.9562C14.2969 22.6531 14.4359 22.0187 14.5937 21.0531C14.725 20.1937 14.8156 19.6687 14.8609 19.4781C14.9078 19.2875 14.9297 19.1156 14.9297 18.9625C14.9297 18.8109 14.9625 18.6516 15.0281 18.4875C15.0937 18.3219 15.1406 18.1344 15.1672 17.9219L15.3453 16.8125C15.5172 15.7297 15.6062 15.1375 15.6125 15.0391C15.6187 14.9406 15.6297 14.8578 15.6422 14.7922C15.6422 14.739 15.6297 14.6969 15.6031 14.6625C15.5766 14.6297 15.5109 14.6125 15.4047 14.6125C15.2984 14.6125 15.239 14.6062 15.2265 14.5922C15.2265 14.5531 15.239 14.4937 15.2656 14.4141C15.714 14.3219 16.1844 14.1765 16.6734 13.9781L16.6937 13.9578V14.1953C16.7062 14.3531 16.7828 14.4703 16.9219 14.5422C17.0609 14.6156 17.1797 14.6609 17.2781 14.6812C17.3766 14.7015 17.4328 14.725 17.4469 14.75C18.0016 14.6703 18.3359 14.614 18.4484 14.5812C18.5609 14.5484 18.6703 14.525 18.775 14.5125V14.5328C18.7609 14.5453 18.7094 14.5531 18.6156 14.5531C18.5359 14.5797 18.4969 14.6265 18.4969 14.6922L18.6359 15.8422C18.7281 16.675 18.775 17.1828 18.775 17.3687C18.775 17.6594 18.7219 18.0234 18.6156 18.4594C18.5765 18.6047 18.5562 18.6969 18.5562 18.7375C18.5562 18.8562 18.5953 19.0156 18.675 19.2125L18.2187 21.8281C18.1531 21.2203 18.0266 20.5328 17.8422 19.7672L17.6641 19.2515V18.9937L17.7234 18.5187C17.7234 18.3875 17.6703 18.3203 17.5656 18.3203H16.0797C16.0141 18.3203 15.9703 18.3469 15.95 18.4C15.9297 18.4531 15.9141 18.5328 15.9 18.6375L15.8015 19.4109C15.7219 20.0453 15.6234 20.5797 15.5047 21.0156C15.3859 21.4515 15.1547 22.0797 14.8109 22.8984C14.6781 23.2547 14.6 23.5656 14.5734 23.8297C14.5469 24.0937 14.514 24.2656 14.475 24.3453C14.3953 24.4781 14.2172 24.5437 13.9406 24.5437C13.3719 24.5437 12.9172 24.5562 12.5734 24.5828L12.0969 24.6031ZM13.4437 14.5547L13.2859 14.5156C12.9812 14.45 12.8172 14.3375 12.7906 14.1781C12.7906 13.9937 12.8109 13.8812 12.85 13.8406C12.9031 13.7484 12.9687 13.6859 13.0484 13.6516C13.1281 13.6187 13.1937 13.575 13.2469 13.5234L13.9797 13.7812C14.1109 13.8344 14.2437 13.8609 14.3766 13.8609C14.4687 13.8609 14.5547 13.8484 14.6344 13.8219L16.0016 13.2469C16.0547 13.2344 16.0875 13.1937 16.1 13.1281C16.1 13.0625 16.0797 13.0094 16.0406 12.9703C16.0141 12.9703 15.7703 12.7984 15.3078 12.4547C15.2281 12.4156 15.1625 12.3687 15.1094 12.3156C14.4484 11.8141 14.1078 11.5594 14.0891 11.5531C14.0687 11.5469 13.9469 11.4437 13.7219 11.2453C13.55 11.1656 13.3953 11.0797 13.2562 10.9875C13.1172 10.8953 12.9891 10.8156 12.8703 10.75L12.5922 10.4719C12.4594 10.2609 12.3937 10.0484 12.3937 9.83749C12.3937 9.70624 12.4203 9.61561 12.4734 9.5703C12.5266 9.52343 12.5656 9.48124 12.5922 9.44218H13.2266C13.2656 9.52186 13.3219 9.63124 13.3953 9.76874C13.4672 9.9078 13.5047 10.0172 13.5047 10.0953L13.564 10.2531C13.6297 10.4391 13.7094 10.5937 13.8015 10.7187C13.8937 10.8437 14.0656 10.9859 14.3172 11.1453L15.3281 11.6609C15.5656 11.7937 15.7969 11.9156 16.0219 12.0281C16.2469 12.1406 16.4187 12.2437 16.5375 12.3359C16.5765 12.3625 16.6172 12.375 16.6562 12.375C16.7219 12.375 16.7812 12.3359 16.8344 12.2562C16.9406 12.125 17.0062 11.9656 17.0328 11.7812L17.1719 11.0875C17.5281 11.2984 17.7656 11.4515 17.8859 11.5437L17.9656 11.6031C17.7547 12.4094 17.5234 12.9906 17.2719 13.3469L17.2328 13.3266C17.2203 13.3797 17.1531 13.439 17.0344 13.5047C16.9156 13.5703 16.8297 13.65 16.7766 13.7422C16.7375 13.7687 16.6906 13.7891 16.6375 13.8015C16.175 13.9875 15.7328 14.125 15.3094 14.2172L14.514 14.375C14.1047 14.4547 13.7484 14.5141 13.4437 14.5547ZM13.4437 14.5734L13.2859 14.5344C12.9812 14.4687 12.8172 14.3562 12.7906 14.1969C12.7906 14.0125 12.8109 13.9 12.85 13.8594C12.9031 13.7672 12.9687 13.7047 13.0484 13.6703C13.1281 13.6375 13.1937 13.5937 13.2469 13.5422L13.9797 13.8C14.1109 13.8531 14.2437 13.8797 14.3766 13.8797C14.4687 13.8797 14.5547 13.8672 14.6344 13.8406L16.0016 13.2656C16.0547 13.2531 16.0875 13.2125 16.1 13.1469C16.1 13.0812 16.0797 13.0281 16.0406 12.989C16.0141 12.989 15.7703 12.8172 15.3078 12.4734C15.2281 12.4344 15.1625 12.3875 15.1094 12.3344C14.4484 11.8328 14.1078 11.5781 14.0891 11.5719C14.0687 11.5656 13.9469 11.4625 13.7219 11.264C13.55 11.1844 13.3953 11.0984 13.2562 11.0062C13.1172 10.9141 12.9891 10.8344 12.8703 10.7687L12.5922 10.4906C12.4594 10.2797 12.3937 10.0672 12.3937 9.85624C12.3937 9.72499 12.4203 9.63436 12.4734 9.58905C12.5266 9.54218 12.5656 9.49999 12.5922 9.46093H13.2266C13.2656 9.54061 13.3219 9.64999 13.3953 9.78749C13.4672 9.92655 13.5047 10.0359 13.5047 10.1141L13.564 10.2734C13.6297 10.4594 13.7094 10.6141 13.8015 10.7391C13.8937 10.8641 14.0656 11.0062 14.3172 11.1656L15.3281 11.6812C15.5656 11.8141 15.7969 11.9359 16.0219 12.0484C16.2469 12.1609 16.4187 12.2641 16.5375 12.3562C16.5765 12.3828 16.6172 12.3953 16.6562 12.3953C16.7219 12.3953 16.7812 12.3562 16.8344 12.2766C16.9406 12.1453 17.0062 11.9859 17.0328 11.8015L17.1719 11.1078C17.5281 11.3187 17.7656 11.4719 17.8859 11.5641L17.9656 11.6234C17.7547 12.4297 17.5234 13.0109 17.2719 13.3672L17.2328 13.3469C17.2203 13.4 17.1531 13.4594 17.0344 13.525C16.9156 13.5906 16.8297 13.6703 16.7766 13.7625C16.7375 13.7891 16.6906 13.8094 16.6375 13.8219C16.175 14.0078 15.7328 14.1453 15.3094 14.2375L14.5172 14.3953C14.1047 14.475 13.7484 14.5344 13.4437 14.5734ZM16.6547 12.2156H16.6156C16.325 12.0172 15.9156 11.7859 15.3875 11.5219C14.5281 11.0984 14.0328 10.8078 13.9016 10.65C13.8094 10.4922 13.7297 10.3125 13.664 10.1156C13.7562 9.98436 13.8656 9.84218 13.9906 9.68905C14.1156 9.53749 14.2187 9.4078 14.2984 9.30311C14.3781 9.19686 14.4172 9.10468 14.4172 9.02499C14.4172 8.97186 14.4109 8.92655 14.3969 8.88593C14.3703 8.72811 14.3047 8.64843 14.1984 8.64843C14.1453 8.64843 14.1062 8.65155 14.0797 8.6578C14.0531 8.66405 13.9875 8.69061 13.8812 8.73749C13.775 8.78436 13.6891 8.80624 13.6234 8.80624C13.5969 8.77968 13.5672 8.73749 13.5344 8.67811C13.5016 8.61874 13.4719 8.55936 13.4453 8.49999C13.4187 8.44061 13.3984 8.39061 13.3859 8.35155V8.29218C13.3859 8.19999 13.3469 8.14061 13.2672 8.11405V8.09374C13.2672 8.01405 13.2078 7.94218 13.089 7.87499L12.95 7.85468V7.7953C12.95 7.74218 12.9656 7.65311 13 7.52811C13.0328 7.40311 13.0828 7.1953 13.1484 6.90311C13.2141 6.57343 13.2797 6.30155 13.3469 6.09061C13.5047 5.64218 13.6703 5.32499 13.8422 5.13905C13.9734 5.0078 14.1531 4.8953 14.3766 4.80155C14.5219 4.73593 14.6406 4.69218 14.7328 4.67343C14.825 4.65311 14.964 4.64374 15.1484 4.64374C15.4656 4.64374 15.6969 4.69061 15.8422 4.7828C15.9875 4.87499 16.1125 5.05311 16.2187 5.31718C16.2578 5.42343 16.2844 5.52186 16.2984 5.61405C16.3109 5.70624 16.3187 5.8453 16.3187 6.02968C16.3187 6.43905 16.1859 6.85624 15.9219 7.27811C15.8156 7.46405 15.7625 7.5953 15.7625 7.67499L15.7828 7.91249C15.8625 8.22968 16.0141 8.3953 16.239 8.4078L16.3187 8.42811C16.6484 8.56093 16.9203 8.84374 17.1312 9.27968H16.5562C16.5437 9.3328 16.5031 9.37811 16.4375 9.41874C16.3453 9.51093 16.2984 9.64999 16.2984 9.83436V10.0531C16.3109 10.2515 16.4906 10.5281 16.8328 10.8859L17.0515 11.0047C16.9984 11.2156 16.9562 11.4109 16.9234 11.589C16.8906 11.7672 16.8469 11.9156 16.7953 12.0344C16.7406 12.1562 16.6953 12.2156 16.6547 12.2156ZM16.6547 12.2359H16.6156C16.325 12.0375 15.9156 11.8062 15.3875 11.5422C14.5281 11.1187 14.0328 10.8281 13.9016 10.6703C13.8094 10.5125 13.7297 10.3328 13.664 10.1359C13.7562 10.0047 13.8656 9.86249 13.9906 9.70936C14.1156 9.5578 14.2187 9.42811 14.2984 9.32343C14.3781 9.21718 14.4172 9.12499 14.4172 9.0453C14.4172 8.99218 14.4109 8.94686 14.3969 8.90624C14.3703 8.74843 14.3047 8.66874 14.1984 8.66874C14.1453 8.66874 14.1062 8.67186 14.0797 8.67811C14.0531 8.68436 13.9875 8.71093 13.8812 8.7578C13.775 8.80468 13.6891 8.82655 13.6234 8.82655C13.5969 8.79999 13.5672 8.7578 13.5344 8.69843C13.5016 8.63905 13.4719 8.57968 13.4453 8.5203C13.4187 8.46093 13.3984 8.41093 13.3859 8.37186V8.31249C13.3859 8.2203 13.3469 8.16093 13.2672 8.13436V8.11405C13.2672 8.03436 13.2078 7.96249 13.089 7.8953L12.95 7.87499V7.81561C12.95 7.76249 12.9656 7.67343 13 7.54843C13.0328 7.42343 13.0828 7.21561 13.1484 6.92343C13.2141 6.59374 13.2797 6.32186 13.3469 6.11093C13.5047 5.66249 13.6703 5.3453 13.8422 5.15936C13.9734 5.02811 14.1531 4.91561 14.3766 4.82186C14.5219 4.75624 14.6406 4.71249 14.7328 4.69374C14.825 4.67343 14.964 4.66405 15.1484 4.66405C15.4656 4.66405 15.6969 4.71093 15.8422 4.80311C15.9875 4.8953 16.1125 5.07343 16.2187 5.33749C16.2578 5.44374 16.2844 5.54218 16.2984 5.63436C16.3109 5.72655 16.3187 5.86561 16.3187 6.04999C16.3187 6.45936 16.1859 6.87655 15.9219 7.29843C15.8156 7.48436 15.7625 7.61561 15.7625 7.6953L15.7828 7.9328C15.8625 8.24999 16.0141 8.41561 16.239 8.42811L16.3187 8.44843C16.6484 8.58124 16.9203 8.86405 17.1312 9.29999H16.5562C16.5437 9.35311 16.5031 9.39843 16.4375 9.43905C16.3453 9.53124 16.2984 9.6703 16.2984 9.85468V10.0734C16.3109 10.2719 16.4906 10.5484 16.8328 10.9062L17.0515 11.025C16.9984 11.2359 16.9562 11.4312 16.9234 11.6094C16.8906 11.7875 16.8469 11.9359 16.7953 12.0547C16.7406 12.175 16.6953 12.2359 16.6547 12.2359ZM15.1484 13.4437C15.1219 13.4312 15.1094 13.4172 15.1094 13.4047C15.1094 13.3922 15.125 13.3625 15.1594 13.3156C15.1922 13.2687 15.2219 13.2469 15.2484 13.2469C15.3281 13.2469 15.3937 13.2016 15.4469 13.1078C15.4734 13.0547 15.4859 13.0015 15.4859 12.95C15.4859 12.8844 15.4656 12.8109 15.4266 12.7312L15.9609 13.1078L15.1484 13.4437ZM15.1484 13.4641C15.1219 13.4515 15.1094 13.4375 15.1094 13.425C15.1094 13.4125 15.125 13.3828 15.1594 13.3359C15.1922 13.2891 15.2219 13.2672 15.2484 13.2672C15.3281 13.2672 15.3937 13.2219 15.4469 13.1281C15.4734 13.075 15.4859 13.0219 15.4859 12.9703C15.4859 12.9047 15.4656 12.8312 15.4266 12.7516L15.9609 13.1281L15.1484 13.4641ZM16.0203 24.5828H16C15.9203 24.5828 15.8609 24.5765 15.8219 24.5625L15.8422 24.5422C16.0266 24.3703 16.3312 24.2187 16.7531 24.0859C16.9516 24.0328 17.15 23.9469 17.3484 23.8281L17.4672 23.7687C17.6391 23.7422 17.8109 23.5515 17.9828 23.1937C18.0625 23.0344 18.114 22.8906 18.1406 22.7578C18.1672 22.6922 18.1906 22.6219 18.2094 22.55C18.2297 22.4781 18.2453 22.4016 18.2594 22.3219L18.4969 21.0344C18.6281 20.175 18.7219 19.6531 18.775 19.4687L18.8344 19.1906V18.9531C18.8344 18.7953 18.8672 18.6422 18.9328 18.4969C18.9594 18.4172 18.9859 18.3281 19.0125 18.2297C19.0391 18.1312 19.0781 17.8969 19.1312 17.5266L19.25 16.7937C19.4219 15.7109 19.5109 15.1187 19.5172 15.0203C19.5234 14.9219 19.5344 14.8391 19.5469 14.7734C19.5469 14.7203 19.5344 14.6781 19.5078 14.6437C19.4812 14.6109 19.4156 14.5937 19.3094 14.5937C19.2031 14.5937 19.1437 14.5875 19.1312 14.5734L19.1703 14.4156C19.6719 14.3234 20.1875 14.1719 20.7156 13.9594C20.9672 13.8531 21.1641 13.7219 21.3094 13.5625C21.5078 13.3641 21.7062 12.9687 21.9047 12.3734C21.9437 12.5719 22.0109 12.6703 22.1031 12.6703H22.1234C22.15 12.6703 22.1828 12.6797 22.2219 12.7C22.2609 12.7203 22.3015 12.7359 22.3406 12.75L22.3203 12.889C22.3203 12.9547 22.3406 13.0219 22.3797 13.0875C22.4187 13.1531 22.4859 13.1859 22.5781 13.1859L22.6375 13.2062C22.6906 13.2719 22.7172 13.3187 22.7172 13.3453C22.7172 13.3578 22.6906 13.375 22.6375 13.3953C22.5844 13.4156 22.5344 13.4422 22.489 13.475C22.4422 13.5078 22.4203 13.5578 22.4203 13.6234C22.4203 13.6359 22.45 13.7453 22.5094 13.95C22.5687 14.1547 22.6109 14.2906 22.6375 14.3562C22.6641 14.4219 22.6766 14.475 22.6766 14.514L22.6375 14.5344C22.4797 14.5344 22.4 14.5812 22.4 14.6734L22.5391 15.8234C22.6312 16.6562 22.6781 17.1641 22.6781 17.35C22.6781 17.4562 22.675 17.5656 22.6687 17.6765C22.6625 17.7891 22.6328 17.9312 22.5797 18.1031L22.4812 18.7172C22.4812 18.7562 22.4875 18.8094 22.5015 18.875C22.514 18.9406 22.5312 19.0078 22.5515 19.0734C22.5719 19.1391 22.5875 19.1953 22.6015 19.2422C22.614 19.2891 22.6281 19.3109 22.6406 19.3109L22.6797 19.45C22.6 19.7797 22.5078 20.3015 22.4016 21.0156C22.2953 21.6234 22.2172 22.0469 22.1641 22.2844C22.1109 21.4781 21.9781 20.6328 21.7672 19.7469C21.7015 19.5219 21.6344 19.35 21.5687 19.2312V18.9734L21.6281 18.4984C21.6281 18.3672 21.575 18.3 21.4703 18.3H19.9844C19.9187 18.3 19.8719 18.3359 19.8453 18.4094C19.8187 18.4828 19.7922 18.6906 19.7656 19.0344C19.7656 19.0469 19.7594 19.0547 19.7453 19.0547L19.7062 19.3922C19.6406 19.9344 19.5609 20.3906 19.4687 20.7594C19.3625 21.1953 19.1844 21.7234 18.9344 22.3453C18.8687 22.5437 18.7953 22.7219 18.7156 22.8797C18.5828 23.2359 18.5047 23.5469 18.4781 23.8109C18.4516 24.075 18.4187 24.2469 18.3797 24.3265C18.3 24.4594 18.1219 24.525 17.8453 24.525C17.2766 24.525 16.8219 24.5375 16.4781 24.5641H16.1406L16.0203 24.5828ZM16.0203 24.6031H16C15.9203 24.6031 15.8609 24.5969 15.8219 24.5828L15.8422 24.5625C16.0266 24.3906 16.3312 24.239 16.7531 24.1062C16.9516 24.0531 17.15 23.9672 17.3484 23.8484L17.4672 23.7891C17.6391 23.7625 17.8109 23.5703 17.9828 23.2141C18.0625 23.0562 18.114 22.9109 18.1406 22.7781C18.1672 22.7125 18.1906 22.6422 18.2094 22.5703C18.2297 22.4984 18.2453 22.4219 18.2594 22.3422L18.4969 21.0547C18.6281 20.1953 18.7219 19.6734 18.775 19.4891L18.8344 19.2109V18.9734C18.8344 18.8156 18.8672 18.6625 18.9328 18.5172C18.9594 18.4375 18.9859 18.3484 19.0125 18.25C19.0391 18.1516 19.0781 17.9172 19.1312 17.5469L19.25 16.8141C19.4219 15.7312 19.5109 15.1391 19.5172 15.0406C19.5234 14.9422 19.5344 14.8594 19.5469 14.7937C19.5469 14.7406 19.5344 14.6984 19.5078 14.6641C19.4812 14.6312 19.4156 14.614 19.3094 14.614C19.2031 14.614 19.1437 14.6078 19.1312 14.5937L19.1703 14.4359C19.6719 14.3437 20.1875 14.1922 20.7156 13.9797C20.9672 13.8734 21.1641 13.7422 21.3094 13.5828C21.5078 13.3844 21.7062 12.989 21.9047 12.3937C21.9437 12.5922 22.0109 12.6906 22.1031 12.6906H22.1234C22.15 12.6906 22.1828 12.7 22.2219 12.7203C22.2609 12.7406 22.3015 12.7562 22.3406 12.7703L22.3203 12.9094C22.3203 12.975 22.3406 13.0422 22.3797 13.1078C22.4187 13.1734 22.4859 13.2062 22.5781 13.2062L22.6375 13.2266C22.6906 13.2922 22.7172 13.3391 22.7172 13.3656C22.7172 13.3781 22.6906 13.3953 22.6375 13.4156C22.5844 13.4359 22.5344 13.4625 22.489 13.4953C22.4422 13.5281 22.4203 13.5781 22.4203 13.6437C22.4203 13.6562 22.45 13.7656 22.5094 13.9703C22.5687 14.175 22.6109 14.3109 22.6375 14.3766C22.6641 14.4422 22.6766 14.4953 22.6766 14.5344C22.6625 14.5469 22.6109 14.5547 22.5187 14.5547C22.439 14.5812 22.4 14.6281 22.4 14.6937L22.5391 15.8437C22.6312 16.6765 22.6781 17.1844 22.6781 17.3703C22.6781 17.4766 22.675 17.5859 22.6687 17.6969C22.6625 17.8094 22.6328 17.9515 22.5797 18.1234L22.4812 18.7375C22.4812 18.7766 22.4875 18.8297 22.5015 18.8953C22.514 18.9609 22.5312 19.0281 22.5515 19.0937C22.5719 19.1594 22.5875 19.2156 22.6015 19.2625C22.614 19.3094 22.6281 19.3312 22.6406 19.3312L22.6797 19.4703C22.6 19.8015 22.5078 20.3234 22.4016 21.0359C22.2953 21.6437 22.2172 22.0672 22.1641 22.3047C22.1109 21.4984 21.9781 20.6531 21.7672 19.7672C21.7015 19.5422 21.6344 19.3703 21.5687 19.2515V18.9937L21.6281 18.5187C21.6281 18.3875 21.575 18.3203 21.4703 18.3203H19.9844C19.9187 18.3203 19.8719 18.3562 19.8453 18.4297C19.8187 18.5031 19.7922 18.7109 19.7656 19.0547C19.7656 19.0672 19.7594 19.075 19.7453 19.075L19.7062 19.4125C19.6406 19.9547 19.5609 20.4109 19.4687 20.7797C19.3625 21.2156 19.1844 21.7437 18.9344 22.3656C18.8687 22.5641 18.7953 22.7422 18.7156 22.9C18.5828 23.2562 18.5047 23.5672 18.4781 23.8312C18.4516 24.0953 18.4187 24.2672 18.3797 24.3469C18.3 24.4797 18.1219 24.5453 17.8453 24.5453C17.2766 24.5453 16.8219 24.5578 16.4781 24.5844H16.1406L16.0203 24.6031ZM17.9031 24.7406C17.0047 24.7406 16.4625 24.7344 16.2781 24.7203H16.4765C16.8328 24.6937 17.2828 24.6812 17.825 24.6812C18.1687 24.6812 18.3922 24.589 18.4984 24.4031C18.5515 24.3109 18.5906 24.1187 18.6172 23.8281C18.6437 23.6031 18.7094 23.339 18.8156 23.0359L18.7953 23.5703C18.7953 23.7156 18.8047 23.864 18.825 24.0156C18.8453 24.1672 18.8547 24.2828 18.8547 24.3625C18.8547 24.4812 18.8422 24.5609 18.8156 24.6C18.7234 24.6953 18.4187 24.7406 17.9031 24.7406ZM17.9031 24.7609C17.0047 24.7609 16.4625 24.7547 16.2781 24.7406H16.4765C16.8328 24.7141 17.2828 24.7015 17.825 24.7015C18.1687 24.7015 18.3922 24.6094 18.4984 24.4234C18.5515 24.3312 18.5906 24.1391 18.6172 23.8484C18.6437 23.6234 18.7094 23.3594 18.8156 23.0562L18.7953 23.5906C18.7953 23.7359 18.8047 23.8844 18.825 24.0359C18.8453 24.1875 18.8547 24.3031 18.8547 24.3828C18.8547 24.5016 18.8422 24.5812 18.8156 24.6203C18.7234 24.7156 18.4187 24.7609 17.9031 24.7609ZM25.8515 24.7406H25.475C24.6031 24.7406 24.1469 24.7203 24.1078 24.6812V24.6609C24.1469 24.5422 24.3453 24.4359 24.7015 24.3437C25.15 24.2375 25.4781 24.139 25.6828 24.0469C25.8875 23.9547 26.0359 23.8094 26.1281 23.6109C26.2078 23.4797 26.2469 23.3328 26.2469 23.175C26.2469 22.2641 26.1406 21.3125 25.9297 20.3203C25.864 20.0687 25.8172 19.8781 25.7906 19.7453C25.764 19.6141 25.7375 19.5078 25.7109 19.4281C25.6453 19.2828 25.6125 19.1906 25.6125 19.15V18.9719L25.6719 18.4969C25.6719 18.3656 25.6187 18.2984 25.514 18.2984H24.0281C23.9625 18.2984 23.9156 18.3344 23.889 18.4078C23.8625 18.4812 23.8359 18.689 23.8094 19.0328L23.7891 19.0531L23.75 19.3906C23.6844 19.9859 23.5937 20.4937 23.4828 20.9172C23.3703 21.3406 23.1484 21.9547 22.8187 22.7609C22.8062 22.7609 22.7953 22.7703 22.7891 22.7906C22.7828 22.8109 22.7719 22.8406 22.7594 22.8797C22.7469 22.9187 22.7328 22.9531 22.7203 22.9781C22.614 23.3078 22.5484 23.5953 22.5219 23.8406C22.4953 24.0859 22.4625 24.2469 22.4234 24.3265C22.3437 24.4594 22.1656 24.525 21.889 24.525C21.3203 24.525 20.8656 24.5375 20.5219 24.5641C20.364 24.5641 20.2375 24.5703 20.1453 24.5844H19.9469L19.8672 24.5641L19.8875 24.5437C20.0719 24.3719 20.3766 24.2203 20.7984 24.0875C20.9969 24.0344 21.1953 23.9484 21.3937 23.8297L21.5125 23.7703C21.7234 23.7172 21.9094 23.4922 22.0672 23.0969L22.1266 22.9187C22.2453 22.6812 22.3844 22.0531 22.5422 21.0359C22.6219 20.4812 22.6937 20.0515 22.7594 19.7469C22.7719 19.6812 22.7828 19.6219 22.7891 19.5687C22.7953 19.5156 22.8062 19.4828 22.8187 19.4703V19.45C22.8578 19.3437 22.8781 19.1797 22.8781 18.9547C22.8781 18.7969 22.9109 18.6437 22.9766 18.4984C23.0562 18.2609 23.1219 17.9375 23.175 17.5266L23.2937 16.7937C23.4656 15.7109 23.5547 15.1187 23.5609 15.0203C23.5672 14.9219 23.5765 14.8391 23.5906 14.7734C23.5906 14.7203 23.5765 14.6781 23.5515 14.6437C23.525 14.6109 23.4594 14.5937 23.3531 14.5937C23.2469 14.5937 23.1875 14.5875 23.175 14.5734L23.3937 13.6812C23.3937 13.6281 23.3672 13.575 23.3141 13.5234C23.1812 13.4703 23.0953 13.4312 23.0562 13.4047C23.0562 13.3922 23.0719 13.3625 23.1062 13.3156C23.1391 13.2687 23.1687 13.2469 23.1953 13.2469C23.275 13.2469 23.3406 13.2016 23.3937 13.1078C23.4203 13.0547 23.4328 13.0015 23.4328 12.95C23.4328 12.8578 23.4062 12.7594 23.3531 12.6531C23.3266 12.6141 23.2969 12.5515 23.264 12.464C23.2312 12.3781 23.1953 12.289 23.1547 12.1969C23.075 11.9328 23.0031 11.7344 22.9359 11.6016C22.8703 11.4703 22.7844 11.3578 22.6781 11.264C22.5719 11.1719 22.4594 11.125 22.3406 11.125C22.1828 11.125 22.0828 11.2109 22.0437 11.3828L21.9641 11.739L21.8656 12.0562C21.6547 12.7437 21.4359 13.2062 21.2109 13.4437C21.0781 13.5891 20.9 13.7078 20.6765 13.8C20.175 14.0109 19.6859 14.1641 19.2094 14.2562H19.1297C19.1156 14.2687 19.0969 14.2766 19.0703 14.2766H19.0109C18.9984 14.2906 18.9781 14.2969 18.9516 14.2969C18.925 14.2969 18.8984 14.3031 18.8719 14.3172H18.7922L18.7328 14.3375C18.5078 14.3766 18.3297 14.4172 18.1984 14.4562L17.4844 14.5547L17.3265 14.5156C16.9953 14.4359 16.8312 14.325 16.8312 14.1781V14.0781C16.8312 13.8797 16.9234 13.7344 17.1094 13.6422C17.175 13.6156 17.2344 13.5766 17.2875 13.5234L18.0203 13.7812C18.1516 13.8344 18.3312 13.8609 18.5547 13.8609L18.6937 13.8015C19.1422 13.6297 19.5922 13.4453 20.0422 13.2469C20.0953 13.2344 20.1281 13.1937 20.1406 13.1281C20.1406 13.0625 20.1281 13.0187 20.1015 13C20.075 12.9797 19.9766 12.9078 19.8047 12.7812C19.6328 12.6562 19.4219 12.5078 19.1703 12.3359C19.0781 12.2828 19.0125 12.2297 18.9719 12.1781C18.3906 11.7687 18.0859 11.5469 18.0609 11.5141C18.0344 11.4812 18.014 11.4578 18.0015 11.4453C17.975 11.4187 17.9453 11.3953 17.9125 11.3765C17.8797 11.3562 17.8469 11.3297 17.8141 11.2969C17.7812 11.2641 17.7578 11.2469 17.7453 11.2469L17.0906 10.8703C16.9328 10.7516 16.7797 10.6187 16.6344 10.4734C16.5015 10.2625 16.4359 10.05 16.4359 9.83905C16.4359 9.7078 16.4625 9.61718 16.5156 9.57186C16.5687 9.52499 16.6078 9.4828 16.6344 9.44374H17.2687C17.2953 9.50936 17.3312 9.57655 17.3781 9.64218C17.425 9.7078 17.4672 9.81405 17.5078 9.95936L17.5469 10.0391C17.5469 10.1453 17.5937 10.2766 17.6859 10.4359C17.725 10.5547 17.7781 10.6609 17.8437 10.7531C17.9359 10.8594 18.1078 10.9906 18.3594 11.15L18.6765 11.3281C18.875 11.4203 19.1 11.5328 19.35 11.6656C19.6015 11.7984 19.8391 11.9203 20.0641 12.0328C20.2891 12.1453 20.4609 12.2484 20.5797 12.3406C20.6187 12.3672 20.6594 12.3797 20.6984 12.3797C20.8172 12.3797 20.9234 12.2609 21.0156 12.0234C21.0687 11.8781 21.0953 11.7594 21.0953 11.6672C21.2265 10.8875 21.3734 10.4187 21.5312 10.2594C21.5703 10.1937 21.8094 9.8828 22.2453 9.32811C22.325 9.20936 22.3641 9.10936 22.3641 9.03124C22.3641 8.97811 22.3578 8.9328 22.3437 8.89218C22.3172 8.73436 22.2515 8.65468 22.1453 8.65468C22.0922 8.65468 22.0531 8.6578 22.0266 8.66405C22 8.6703 21.9344 8.69686 21.8281 8.74374C21.7219 8.79061 21.6359 8.81249 21.5703 8.81249C21.5437 8.78593 21.514 8.74374 21.4812 8.68436C21.4484 8.62499 21.4187 8.56561 21.3922 8.50624C21.3656 8.44686 21.3453 8.39686 21.3328 8.3578V8.29843C21.3328 8.20624 21.2937 8.14686 21.2141 8.1203V8.09999C21.2141 8.0203 21.1547 7.94843 21.0359 7.88124L20.8969 7.86093C20.8969 7.74218 20.9094 7.63905 20.9359 7.55311C20.9625 7.46718 20.975 7.40468 20.975 7.36405C21.0406 7.15311 21.114 6.86249 21.1937 6.49218C21.2062 6.34686 21.2859 6.08905 21.4312 5.71874C21.6297 5.2828 21.9265 4.97968 22.3234 4.8078C22.4687 4.74218 22.5875 4.69843 22.6797 4.67968C22.7719 4.65936 22.9109 4.64999 23.0953 4.64999C23.4125 4.64999 23.6437 4.69686 23.7891 4.78905C23.9344 4.88124 24.0594 5.05936 24.1656 5.32343C24.2047 5.42968 24.2312 5.52811 24.2453 5.6203C24.2578 5.71249 24.2656 5.85155 24.2656 6.03593C24.2656 6.4453 24.1328 6.86249 23.8687 7.28436C23.7625 7.4703 23.7109 7.60155 23.7109 7.68124L23.7312 7.91874C23.8234 8.23593 23.975 8.40155 24.1875 8.41405L24.2672 8.43436C24.5969 8.56718 24.8687 8.84999 25.0797 9.28593C25.6078 10.4484 25.8922 11.4265 25.9328 12.2187C25.9453 12.3375 25.9719 12.4562 26.0125 12.575C26.039 12.6406 26.0922 12.6734 26.1703 12.6734C26.1969 12.6734 26.2297 12.6828 26.2687 12.7031C26.3078 12.7234 26.3484 12.7391 26.3875 12.7531L26.3672 12.8922C26.3672 12.9578 26.3875 13.025 26.4266 13.0906C26.4656 13.1562 26.5328 13.1891 26.625 13.1891L26.6844 13.2094C26.7375 13.275 26.764 13.3219 26.764 13.3484C26.764 13.3609 26.7375 13.3781 26.6844 13.3984C26.6312 13.4187 26.5812 13.4453 26.5359 13.4781C26.489 13.5109 26.4672 13.5609 26.4672 13.6265C26.4672 13.639 26.4969 13.7484 26.5562 13.9531C26.6156 14.1578 26.6578 14.2937 26.6844 14.3594C26.7109 14.425 26.7234 14.4781 26.7234 14.5172L26.6844 14.5375C26.5266 14.5375 26.4469 14.5844 26.4469 14.6765L26.5859 15.8266C26.6781 16.6594 26.725 17.1672 26.725 17.3531C26.725 17.4594 26.7219 17.5687 26.7156 17.6797C26.7094 17.7922 26.6797 17.9344 26.6266 18.1062L26.5281 18.7203C26.5281 18.8 26.5547 18.9187 26.6078 19.0765L26.6672 19.3141C26.7594 19.5656 26.8265 19.8156 26.8656 20.0672C26.8781 20.239 26.8859 20.45 26.8859 20.7016C26.8859 21.2031 26.8469 21.9375 26.7672 22.9016L26.7469 23.5156C26.7469 23.6875 26.7594 23.8562 26.7859 24.0203C26.8125 24.1859 26.825 24.314 26.825 24.4062C26.825 24.4984 26.8109 24.5641 26.7859 24.6047C26.6765 24.6953 26.3672 24.7406 25.8515 24.7406ZM25.8515 24.7609H25.475C24.6031 24.7609 24.1469 24.7406 24.1078 24.7015V24.6812C24.1469 24.5625 24.3453 24.4562 24.7015 24.364C25.15 24.2578 25.4781 24.1594 25.6828 24.0672C25.8875 23.975 26.0359 23.8297 26.1281 23.6312C26.2078 23.5 26.2469 23.3531 26.2469 23.1953C26.2469 22.2844 26.1406 21.3328 25.9297 20.3406C25.864 20.089 25.8172 19.8984 25.7906 19.7656C25.764 19.6344 25.7375 19.5281 25.7109 19.4484C25.6453 19.3031 25.6125 19.2109 25.6125 19.1703V18.9922L25.6719 18.5172C25.6719 18.3859 25.6187 18.3187 25.514 18.3187H24.0281C23.9625 18.3187 23.9156 18.3547 23.889 18.4281C23.8625 18.5016 23.8359 18.7094 23.8094 19.0531L23.7891 19.0734L23.75 19.4109C23.6844 20.0047 23.5937 20.5141 23.4828 20.9375C23.3703 21.3609 23.1484 21.975 22.8187 22.7812C22.8062 22.7812 22.7953 22.7906 22.7891 22.8109C22.7828 22.8312 22.7719 22.8609 22.7594 22.9C22.7469 22.939 22.7328 22.9734 22.7203 22.9984C22.614 23.3281 22.5484 23.6156 22.5219 23.8609C22.4953 24.1062 22.4625 24.2672 22.4234 24.3469C22.3437 24.4797 22.1656 24.5453 21.889 24.5453C21.3203 24.5453 20.8656 24.5578 20.5219 24.5844C20.364 24.5844 20.2375 24.5906 20.1453 24.6047H19.9469L19.8672 24.5844L19.8875 24.5641C20.0719 24.3922 20.3766 24.2406 20.7984 24.1078C20.9969 24.0547 21.1953 23.9687 21.3937 23.85L21.5125 23.7906C21.7234 23.7375 21.9094 23.5125 22.0672 23.1172L22.1266 22.939C22.2453 22.7015 22.3844 22.0734 22.5422 21.0562C22.6219 20.5015 22.6937 20.0719 22.7594 19.7672C22.7719 19.7016 22.7828 19.6422 22.7891 19.5891C22.7953 19.5359 22.8062 19.5031 22.8187 19.4906V19.4703C22.8578 19.364 22.8781 19.2 22.8781 18.975C22.8781 18.8172 22.9109 18.664 22.9766 18.5187C23.0562 18.2812 23.1219 17.9578 23.175 17.5469L23.2937 16.8141C23.4656 15.7312 23.5547 15.1391 23.5609 15.0406C23.5672 14.9422 23.5765 14.8594 23.5906 14.7937C23.5906 14.7406 23.5765 14.6984 23.5515 14.6641C23.525 14.6312 23.4594 14.614 23.3531 14.614C23.2469 14.614 23.1875 14.6078 23.175 14.5937L23.3937 13.7016C23.3937 13.6484 23.3672 13.5953 23.3141 13.5437C23.1812 13.4906 23.0953 13.4515 23.0562 13.425C23.0562 13.4125 23.0719 13.3828 23.1062 13.3359C23.1391 13.2891 23.1687 13.2672 23.1953 13.2672C23.275 13.2672 23.3406 13.2219 23.3937 13.1281C23.4203 13.075 23.4328 13.0219 23.4328 12.9703C23.4328 12.8781 23.4062 12.7797 23.3531 12.6734C23.3266 12.6344 23.2969 12.5719 23.264 12.4844C23.2312 12.3984 23.1953 12.3094 23.1547 12.2172C23.075 11.9531 23.0031 11.7547 22.9359 11.6219C22.8703 11.4906 22.7844 11.3781 22.6781 11.2844C22.5719 11.1922 22.4594 11.1453 22.3406 11.1453C22.1828 11.1453 22.0828 11.2312 22.0437 11.4031L21.9641 11.7594L21.8656 12.0766C21.6547 12.7641 21.4359 13.2266 21.2109 13.4641C21.0781 13.6094 20.9 13.7281 20.6765 13.8203C20.175 14.0312 19.6859 14.1844 19.2094 14.2766H19.1297C19.1156 14.2906 19.0969 14.2969 19.0703 14.2969H19.0109C18.9984 14.3109 18.9781 14.3172 18.9516 14.3172C18.925 14.3172 18.8984 14.3234 18.8719 14.3375H18.7922L18.7328 14.3578C18.5078 14.3969 18.3297 14.4375 18.1984 14.4766L17.4844 14.575L17.3265 14.5359C16.9953 14.4562 16.8312 14.3453 16.8312 14.1984V14.1C16.8312 13.9015 16.9234 13.7562 17.1094 13.664C17.175 13.6375 17.2344 13.5984 17.2875 13.5453L18.0203 13.8031C18.1516 13.8562 18.3312 13.8828 18.5547 13.8828L18.6937 13.8234C19.1422 13.6516 19.5922 13.4672 20.0422 13.2687C20.0953 13.2562 20.1281 13.2156 20.1406 13.15C20.1406 13.0844 20.1281 13.0406 20.1015 13.0203C20.075 13 19.9766 12.9281 19.8047 12.8031C19.6328 12.6781 19.4219 12.5297 19.1703 12.3578C19.0781 12.3047 19.0125 12.2516 18.9719 12.2C18.3906 11.7906 18.0859 11.5687 18.0609 11.5359C18.0344 11.5031 18.014 11.4797 18.0015 11.4672C17.975 11.4406 17.9453 11.4172 17.9125 11.3984C17.8797 11.3781 17.8469 11.3516 17.8141 11.3187C17.7812 11.2859 17.7578 11.2687 17.7453 11.2687L17.0906 10.8922C16.9328 10.7734 16.7797 10.6406 16.6344 10.4953C16.5015 10.2844 16.4359 10.0719 16.4359 9.86093C16.4359 9.72968 16.4625 9.63905 16.5156 9.59374C16.5687 9.54686 16.6078 9.50468 16.6344 9.46561H17.2687C17.2953 9.53124 17.3312 9.59842 17.3781 9.66405C17.425 9.72967 17.4672 9.83593 17.5078 9.98124L17.5469 10.0609C17.5469 10.1672 17.5937 10.2984 17.6859 10.4578C17.725 10.5766 17.7781 10.6828 17.8437 10.775C17.9359 10.8812 18.1078 11.0125 18.3594 11.1719L18.6765 11.35C18.875 11.4422 19.1 11.5547 19.35 11.6875C19.6015 11.8203 19.8391 11.9422 20.0641 12.0547C20.2891 12.1672 20.4609 12.2703 20.5797 12.3625C20.6187 12.3891 20.6594 12.4016 20.6984 12.4016C20.8172 12.4016 20.9234 12.2828 21.0156 12.0453C21.0687 11.9 21.0953 11.7812 21.0953 11.689C21.2265 10.9094 21.3734 10.4406 21.5312 10.2812C21.5703 10.2156 21.8094 9.90468 22.2453 9.34999C22.325 9.23124 22.3641 9.13124 22.3641 9.05311C22.3641 8.99999 22.3578 8.95468 22.3437 8.91405C22.3172 8.75624 22.2515 8.67655 22.1453 8.67655C22.0922 8.67655 22.0531 8.67968 22.0266 8.68593C22 8.69218 21.9344 8.71874 21.8281 8.76561C21.7219 8.81249 21.6359 8.83436 21.5703 8.83436C21.5437 8.8078 21.514 8.76561 21.4812 8.70624C21.4484 8.64686 21.4187 8.58749 21.3922 8.52811C21.3656 8.46874 21.3453 8.41874 21.3328 8.37968V8.3203C21.3328 8.22811 21.2937 8.16874 21.2141 8.14218V8.12186C21.2141 8.04218 21.1547 7.9703 21.0359 7.90311L20.8969 7.8828C20.8969 7.76405 20.9094 7.66093 20.9359 7.57499C20.9625 7.48905 20.975 7.42655 20.975 7.38593C21.0406 7.17499 21.114 6.88436 21.1937 6.51405C21.2062 6.36874 21.2859 6.11093 21.4312 5.74061C21.6297 5.30468 21.9265 5.00155 22.3234 4.82968C22.4687 4.76405 22.5875 4.7203 22.6797 4.70155C22.7719 4.68124 22.9109 4.67186 23.0953 4.67186C23.4125 4.67186 23.6437 4.71874 23.7891 4.81093C23.9344 4.90311 24.0594 5.08124 24.1656 5.3453C24.2047 5.45155 24.2312 5.54999 24.2453 5.64218C24.2578 5.73436 24.2656 5.87343 24.2656 6.0578C24.2656 6.46718 24.1328 6.88436 23.8687 7.30624C23.7625 7.49218 23.7109 7.62343 23.7109 7.70311L23.7312 7.94061C23.8234 8.2578 23.975 8.42343 24.1875 8.43593L24.2672 8.45624C24.5969 8.58905 24.8687 8.87186 25.0797 9.3078C25.6078 10.4703 25.8922 11.4484 25.9328 12.2406C25.9453 12.3594 25.9719 12.4781 26.0125 12.5969C26.039 12.6625 26.0922 12.6953 26.1703 12.6953C26.1969 12.6953 26.2297 12.7047 26.2687 12.725C26.3078 12.7453 26.3484 12.7609 26.3875 12.775L26.3672 12.9141C26.3672 12.9797 26.3875 13.0469 26.4266 13.1125C26.4656 13.1781 26.5328 13.2109 26.625 13.2109L26.6844 13.2312C26.7375 13.2969 26.764 13.3437 26.764 13.3703C26.764 13.3828 26.7375 13.4 26.6844 13.4203C26.6312 13.4406 26.5812 13.4672 26.5359 13.5C26.489 13.5328 26.4672 13.5828 26.4672 13.6484C26.4672 13.6609 26.4969 13.7703 26.5562 13.975C26.6156 14.1797 26.6578 14.3156 26.6844 14.3812C26.7109 14.4469 26.7234 14.5 26.7234 14.5391C26.7109 14.5516 26.6578 14.5594 26.5656 14.5594C26.4859 14.5859 26.4469 14.6328 26.4469 14.6984L26.5859 15.8484C26.6781 16.6812 26.725 17.189 26.725 17.375C26.725 17.4812 26.7219 17.5906 26.7156 17.7016C26.7094 17.8141 26.6797 17.9562 26.6266 18.1281L26.5281 18.7422C26.5281 18.8219 26.5547 18.9406 26.6078 19.0984L26.6672 19.3359C26.7594 19.5875 26.8265 19.8375 26.8656 20.0891C26.8781 20.2609 26.8859 20.4719 26.8859 20.7234C26.8859 21.225 26.8469 21.9594 26.7672 22.9234L26.7469 23.5375C26.7469 23.7094 26.7594 23.8781 26.7859 24.0422C26.8125 24.2078 26.825 24.3359 26.825 24.4281C26.825 24.5203 26.8109 24.5859 26.7859 24.6266C26.6765 24.7156 26.3672 24.7609 25.8515 24.7609ZM20.6984 12.2156H20.6594C20.3687 12.0172 19.9594 11.7859 19.4312 11.5219C18.5719 11.0984 18.0765 10.8078 17.9453 10.65C17.8797 10.5437 17.7875 10.3266 17.6672 9.9953L18.2015 9.32186C18.2812 9.20311 18.3203 9.10311 18.3203 9.02499C18.3203 8.97186 18.3141 8.92655 18.3 8.88593C18.2734 8.72811 18.2078 8.64843 18.1016 8.64843C18.0484 8.64843 18.0094 8.65155 17.9828 8.6578C17.9562 8.66405 17.8906 8.69061 17.7844 8.73749C17.6781 8.78436 17.5922 8.80624 17.5266 8.80624C17.5 8.77968 17.4703 8.73749 17.4375 8.67811C17.4047 8.61874 17.375 8.55936 17.3484 8.49999C17.3219 8.44061 17.3015 8.39061 17.2891 8.35155V8.29218C17.2891 8.19999 17.25 8.14061 17.1703 8.11405V8.09374C17.1703 8.01405 17.1109 7.94218 16.9922 7.87499L16.8531 7.85468C16.8531 7.73593 16.8656 7.6328 16.8922 7.54686C16.9187 7.46093 16.9312 7.39843 16.9312 7.3578C16.9969 7.14686 17.0703 6.85624 17.15 6.48593C17.1625 6.34061 17.2422 6.0828 17.3875 5.71249C17.5859 5.27655 17.8828 4.97343 18.2797 4.80155C18.425 4.73593 18.5437 4.69218 18.6359 4.67343C18.7281 4.65311 18.8672 4.64374 19.0515 4.64374C19.3687 4.64374 19.6 4.69061 19.7453 4.7828C19.8906 4.87499 20.0156 5.05311 20.1219 5.31718C20.1609 5.42343 20.1875 5.52186 20.2015 5.61405C20.214 5.70624 20.2219 5.8453 20.2219 6.02968C20.2219 6.43905 20.0891 6.85624 19.825 7.27811C19.7187 7.46405 19.6672 7.5953 19.6672 7.67499L19.6875 7.91249C19.7797 8.22968 19.9312 8.3953 20.1437 8.4078C20.1703 8.4078 20.2359 8.43436 20.3422 8.48749C20.7516 8.67343 21.1078 9.22811 21.4125 10.1516L21.2937 10.35C21.1484 10.7062 21.0359 11.1297 20.9562 11.6187C20.9297 11.7766 20.8906 11.9156 20.8375 12.0344C20.7844 12.1562 20.7375 12.2156 20.6984 12.2156ZM20.6984 12.2359H20.6594C20.3687 12.0375 19.9594 11.8062 19.4312 11.5422C18.5719 11.1187 18.0765 10.8281 17.9453 10.6703C17.8797 10.5641 17.7875 10.3469 17.6672 10.0156L18.2015 9.34218C18.2812 9.22343 18.3203 9.12343 18.3203 9.0453C18.3203 8.99218 18.3141 8.94686 18.3 8.90624C18.2734 8.74843 18.2078 8.66874 18.1016 8.66874C18.0484 8.66874 18.0094 8.67186 17.9828 8.67811C17.9562 8.68436 17.8906 8.71093 17.7844 8.7578C17.6781 8.80468 17.5922 8.82655 17.5266 8.82655C17.5 8.79999 17.4703 8.7578 17.4375 8.69843C17.4047 8.63905 17.375 8.57968 17.3484 8.5203C17.3219 8.46093 17.3015 8.41093 17.2891 8.37186V8.31249C17.2891 8.2203 17.25 8.16093 17.1703 8.13436V8.11405C17.1703 8.03436 17.1109 7.96249 16.9922 7.8953L16.8531 7.87499C16.8531 7.75624 16.8656 7.65311 16.8922 7.56718C16.9187 7.48124 16.9312 7.41874 16.9312 7.37811C16.9969 7.16718 17.0703 6.87655 17.15 6.50624C17.1625 6.36093 17.2422 6.10311 17.3875 5.7328C17.5859 5.29686 17.8828 4.99374 18.2797 4.82186C18.425 4.75624 18.5437 4.71249 18.6359 4.69374C18.7281 4.67343 18.8672 4.66405 19.0515 4.66405C19.3687 4.66405 19.6 4.71093 19.7453 4.80311C19.8906 4.8953 20.0156 5.07343 20.1219 5.33749C20.1609 5.44374 20.1875 5.54218 20.2015 5.63436C20.214 5.72655 20.2219 5.86561 20.2219 6.04999C20.2219 6.45936 20.0891 6.87655 19.825 7.29843C19.7187 7.48436 19.6672 7.61561 19.6672 7.6953L19.6875 7.9328C19.7797 8.24999 19.9312 8.41561 20.1437 8.42811C20.1703 8.42811 20.2359 8.45468 20.3422 8.5078C20.7516 8.69374 21.1078 9.24843 21.4125 10.1734L21.2937 10.3719C21.1484 10.7281 21.0359 11.1516 20.9562 11.6406C20.9297 11.7984 20.8906 11.9375 20.8375 12.0562C20.7844 12.175 20.7375 12.2359 20.6984 12.2359ZM18.5187 13.7016C18.3203 13.7016 18.1687 13.6812 18.0625 13.6422L17.4078 13.4047C17.5 13.2734 17.5922 13.0969 17.6859 12.8797C17.7781 12.6609 17.8703 12.4015 17.9641 12.0969L17.9844 12.2156C18.0234 12.5203 18.0797 12.6719 18.1531 12.6719C18.225 12.6719 18.2812 12.6812 18.3219 12.7016C18.3625 12.7219 18.4015 12.7375 18.4406 12.7516L18.4203 12.8906C18.4203 12.9562 18.4406 13.0234 18.4797 13.089C18.5187 13.1547 18.5781 13.1875 18.6578 13.1875H18.6781C18.6906 13.1875 18.7078 13.1969 18.7281 13.2172C18.7484 13.2375 18.7672 13.2609 18.7875 13.2859C18.8078 13.3125 18.8172 13.3328 18.8172 13.3453C18.8047 13.3578 18.7515 13.3891 18.6594 13.4344C18.5672 13.4812 18.5172 13.5234 18.5109 13.5625C18.5047 13.6016 18.5016 13.6422 18.5016 13.6812L18.5187 13.7016ZM18.5187 13.7219C18.3203 13.7219 18.1687 13.7016 18.0625 13.6625L17.4078 13.425C17.5 13.2937 17.5922 13.1172 17.6859 12.9C17.7781 12.6812 17.8703 12.4219 17.9641 12.1172L17.9844 12.2359C18.0234 12.5406 18.0797 12.6922 18.1531 12.6922C18.225 12.6922 18.2812 12.7015 18.3219 12.7219C18.3625 12.7422 18.4015 12.7578 18.4406 12.7719L18.4203 12.9109C18.4203 12.9766 18.4406 13.0437 18.4797 13.1094C18.5187 13.175 18.5781 13.2078 18.6578 13.2078H18.6781C18.6906 13.2078 18.7078 13.2172 18.7281 13.2375C18.7484 13.2578 18.7672 13.2812 18.7875 13.3062C18.8078 13.3328 18.8172 13.3531 18.8172 13.3656C18.8047 13.3781 18.7515 13.4094 18.6594 13.4547C18.5672 13.5016 18.5172 13.5437 18.5109 13.5828C18.5047 13.6219 18.5016 13.6625 18.5016 13.7016L18.5187 13.7219ZM19.0922 13.4641L19.0125 13.4047C19.0125 13.3922 19.0297 13.3625 19.0625 13.3156C19.0953 13.2687 19.125 13.2469 19.1516 13.2469C19.2312 13.2469 19.2969 13.2016 19.35 13.1078C19.3765 13.0547 19.389 13.0015 19.389 12.95C19.389 12.8578 19.3625 12.7594 19.3094 12.6531L19.2703 12.5937L20.0031 13.1094L19.0922 13.4641ZM19.0922 13.4844L19.0125 13.425C19.0125 13.4125 19.0297 13.3828 19.0625 13.3359C19.0953 13.2891 19.125 13.2672 19.1516 13.2672C19.2312 13.2672 19.2969 13.2219 19.35 13.1281C19.3765 13.075 19.389 13.0219 19.389 12.9703C19.389 12.8781 19.3625 12.7797 19.3094 12.6734L19.2703 12.6141L20.0031 13.1297L19.0922 13.4844ZM21.8078 24.7406C20.975 24.7406 20.4406 24.7344 20.2031 24.7203H20.5203C20.8766 24.6937 21.3266 24.6812 21.8687 24.6812C22.2125 24.6812 22.4359 24.589 22.5422 24.4031C22.5953 24.3109 22.6344 24.1187 22.6609 23.8281L22.7 23.55C22.7 23.7078 22.7125 23.8672 22.739 24.025C22.7656 24.1828 22.7781 24.3094 22.7781 24.4016C22.7781 24.4937 22.7656 24.5594 22.739 24.6C22.6344 24.6953 22.3234 24.7406 21.8078 24.7406ZM21.8078 24.7609C20.975 24.7609 20.4406 24.7547 20.2031 24.7406H20.5203C20.8766 24.7141 21.3266 24.7015 21.8687 24.7015C22.2125 24.7015 22.4359 24.6094 22.5422 24.4234C22.5953 24.3312 22.6344 24.1391 22.6609 23.8484L22.7 23.5703C22.7 23.7297 22.7125 23.8875 22.739 24.0453C22.7656 24.2031 22.7781 24.3297 22.7781 24.4219C22.7781 24.5141 22.7656 24.5797 22.739 24.6203C22.6344 24.7156 22.3234 24.7609 21.8078 24.7609Z" fill="#9CA3AF"/>
</svg>
