<svg width="30" height="30" viewBox="0 0 30 30" fill="none" xmlns="http://www.w3.org/2000/svg">
<mask id="mask0_33_2401" style="mask-type:luminance" maskUnits="userSpaceOnUse" x="0" y="21" width="30" height="8">
<path d="M0.320007 21.76H29.6V28.0459H0.320007V21.76Z" fill="white"/>
</mask>
<g mask="url(#mask0_33_2401)">
<path d="M14.9878 28.0419C12.6678 28.0419 10.3434 27.8012 8.07969 27.3269C5.78875 26.8466 3.54969 26.125 1.42469 25.1812C0.981874 24.9847 0.646874 24.6247 0.482187 24.1681C0.317812 23.7128 0.344687 23.2231 0.558124 22.7891C0.559062 22.7872 0.559687 22.7856 0.560624 22.7841C0.981562 21.9337 1.99062 21.5697 2.85812 21.955C10.5669 25.3778 19.4091 25.3778 27.1175 21.955C27.985 21.5697 28.9941 21.9341 29.415 22.7841C29.6306 23.2197 29.6584 23.7112 29.4934 24.1684C29.3288 24.6247 28.9938 24.9847 28.5506 25.1812C26.4259 26.125 24.1869 26.8469 21.8959 27.3269C19.6322 27.8012 17.3081 28.0419 14.9878 28.0419ZM1.38062 23.1862C1.38 23.1875 1.37937 23.1884 1.37875 23.1897C1.27469 23.3997 1.26125 23.6372 1.34094 23.8578C1.42062 24.0781 1.58187 24.2516 1.79531 24.3462C5.89406 26.1662 10.4559 27.1281 14.9878 27.1281C19.5197 27.1281 24.0816 26.1662 28.1803 24.3462C28.3938 24.2516 28.555 24.0781 28.6347 23.8578C28.7144 23.6372 28.7009 23.3997 28.5969 23.1897C28.3938 22.7797 27.9066 22.6041 27.4878 22.79C25.5294 23.6597 23.4659 24.325 21.3547 24.7675C19.2681 25.2047 17.1262 25.4262 14.9878 25.4262C12.8497 25.4262 10.7075 25.2047 8.62094 24.7675C6.50969 24.325 4.44625 23.6597 2.48781 22.79C2.07 22.6044 1.58437 22.7784 1.38062 23.1862Z" fill="#9CA3AF"/>
</g>
<path d="M23.9656 23.7812C23.7653 23.7812 23.5816 23.6484 23.5259 23.4456L21.7006 16.8212C21.6778 16.7381 21.6788 16.65 21.7038 16.5675L23.5291 10.5262C23.6019 10.2847 23.8569 10.1481 24.0981 10.2209C24.3397 10.2941 24.4759 10.5491 24.4031 10.7903L22.6159 16.7056L24.4063 23.2028C24.4731 23.4462 24.3306 23.6978 24.0875 23.7647C24.0469 23.7759 24.0059 23.7812 23.9656 23.7812Z" fill="#9CA3AF"/>
<path d="M6.06219 23.7813C6.03094 23.7813 5.99906 23.7781 5.96719 23.7713C5.72062 23.7191 5.56281 23.4766 5.615 23.2297L6.55625 18.7822L5.50594 17.2341C5.27031 16.8866 5.08812 16.5066 4.96469 16.105C4.84125 15.7028 4.77875 15.286 4.77875 14.8663C4.77875 13.74 5.21719 12.6813 6.01312 11.885C6.80875 11.0885 7.86719 10.65 8.99281 10.65H16.4762L18.205 7.6222C18.895 6.41376 19.8956 5.40564 21.0987 4.70689C22.3016 4.00814 23.6728 3.63876 25.0644 3.63876C25.3166 3.63876 25.5209 3.84345 25.5209 4.09564C25.5209 4.34783 25.3166 4.55251 25.0644 4.55251C23.8337 4.55251 22.6209 4.87908 21.5572 5.4972C20.4931 6.11501 19.6081 7.00658 18.9978 8.07533L17.1375 11.3335C17.0562 11.476 16.905 11.5638 16.7412 11.5638H8.99281C7.17281 11.5638 5.69187 13.045 5.69187 14.8663C5.69187 15.195 5.74094 15.5216 5.8375 15.8366C5.93437 16.1513 6.07687 16.4488 6.26156 16.721L7.42093 18.43C7.49094 18.5328 7.51562 18.6597 7.49 18.7813L6.50844 23.4191C6.46312 23.6338 6.27343 23.7813 6.06219 23.7813Z" fill="#9CA3AF"/>
<path d="M25.5769 11.7185C25.0709 11.7185 24.5694 11.5756 24.1384 11.3056L22.3553 10.1872C22.1416 10.0531 22.0769 9.77126 22.2109 9.55751C22.3447 9.34376 22.6266 9.27908 22.8403 9.41314L24.6234 10.5313C25.3356 10.9781 26.2478 10.8741 26.8416 10.2788C27.105 10.0147 27.2503 9.66345 27.2503 9.29001C27.2503 9.05095 27.1884 8.81439 27.0713 8.60595L25.5034 5.81158C25.38 5.59158 25.4581 5.31314 25.6781 5.1897C25.8978 5.06626 26.1763 5.14439 26.2997 5.36439L27.8675 8.15845C28.0609 8.50314 28.1634 8.8947 28.1634 9.29001C28.1634 9.9072 27.9234 10.4875 27.4881 10.9241C27.0572 11.3563 26.4859 11.6322 25.88 11.7013C25.7791 11.7125 25.6778 11.7185 25.5769 11.7185Z" fill="#9CA3AF"/>
<path d="M2.14688 20.1934C1.99719 20.1934 1.85719 20.12 1.77188 19.9972C1.68657 19.8744 1.66657 19.7175 1.71875 19.5772C2.36157 17.8503 2.5775 15.9716 2.34344 14.1438L2.23657 13.3081C2.17907 12.8594 2.23625 12.3997 2.4025 11.9788C2.56844 11.5578 2.84032 11.1828 3.18844 10.8941C3.65344 10.5088 4.24188 10.2894 4.84532 10.2763C5.44875 10.2625 6.04625 10.4566 6.52782 10.8209L7.22313 11.3481C7.42438 11.5003 7.46375 11.7869 7.31157 11.9878C7.15938 12.1891 6.87313 12.2288 6.67188 12.0763L5.97657 11.5494C5.31594 11.0491 4.40907 11.0691 3.77094 11.5978C3.29938 11.9884 3.06438 12.5844 3.14219 13.1922L3.24938 14.0275C3.47063 15.7566 3.31907 17.5281 2.81157 19.1947C3.94219 18.8991 4.77875 17.8688 4.77875 16.6466V14.8663C4.77875 14.6138 4.98313 14.4094 5.23532 14.4094C5.4875 14.4094 5.69188 14.6138 5.69188 14.8663V16.6466C5.69188 18.6022 4.10157 20.1934 2.14688 20.1934Z" fill="#9CA3AF"/>
<path d="M13.8425 11.5638C13.7656 11.5638 13.6878 11.5444 13.6166 11.5035C13.3975 11.3785 13.3212 11.0994 13.4462 10.8803L15.9869 6.43095C16.9222 4.7922 18.2812 3.42908 19.9166 2.48876C20.6925 2.0422 21.6262 1.95001 22.4778 2.23533C23.3359 2.52283 24.0316 3.16533 24.3859 3.99814L23.5459 4.35626C23.2934 3.76376 22.7984 3.30626 22.1878 3.10158C21.5834 2.89908 20.9216 2.96439 20.3716 3.28064C18.8769 4.14033 17.6347 5.38626 16.7797 6.88408L14.2394 11.3335C14.155 11.481 14.0009 11.5638 13.8425 11.5638Z" fill="#9CA3AF"/>
<path d="M13.2362 15.4609C11.7325 15.4609 10.5094 14.2369 10.5094 12.7325V11.1069C10.5094 10.8547 10.7137 10.65 10.9659 10.65C11.2181 10.65 11.4225 10.8547 11.4225 11.1069V12.7325C11.4225 13.7331 12.2362 14.5472 13.2362 14.5472C14.2366 14.5472 15.05 13.7331 15.05 12.7325V11.1069C15.05 10.8547 15.2547 10.65 15.5069 10.65C15.7587 10.65 15.9634 10.8547 15.9634 11.1069V12.7325C15.9634 14.2369 14.74 15.4609 13.2362 15.4609Z" fill="#9CA3AF"/>
<path d="M25.9016 6.04501C25.7844 6.04501 25.6672 6.00001 25.5781 5.91032C25.4 5.73157 25.4009 5.44219 25.5797 5.26438L26.2944 4.55251H25.0644C24.8122 4.55251 24.6078 4.34813 24.6078 4.09594C24.6078 3.84344 24.8122 3.63907 25.0644 3.63907H27.4003C27.5853 3.63907 27.7519 3.75063 27.8225 3.92157C27.8928 4.09251 27.8534 4.28907 27.7225 4.41969L26.2238 5.91188C26.1347 6.00063 26.0181 6.04501 25.9016 6.04501Z" fill="#9CA3AF"/>
<path d="M7.84813 24.5822C7.78094 24.5822 7.71281 24.5672 7.64844 24.5359C7.42156 24.4253 7.3275 24.1519 7.43813 23.925L10.6209 17.3941C10.6797 17.2734 10.7884 17.185 10.9181 17.1516C11.0478 17.1184 11.1856 17.1437 11.295 17.2212C11.9041 17.6519 13.18 18.3709 14.9081 18.3709C14.9209 18.3709 14.9334 18.3709 14.9463 18.3709C16.6569 18.3603 17.92 17.6459 18.5209 17.2212C18.6266 17.1466 18.7587 17.12 18.885 17.1487C19.0112 17.1772 19.1194 17.2581 19.1828 17.3709L22.8012 23.8347C22.9244 24.0547 22.8459 24.3331 22.6259 24.4562C22.4059 24.5797 22.1275 24.5012 22.0044 24.2809L18.6244 18.2434C17.8444 18.7128 16.5738 19.2747 14.9519 19.2844C14.9372 19.2847 14.9225 19.2847 14.9081 19.2847C13.2828 19.2847 12.0072 18.73 11.2159 18.2581L8.25875 24.3256C8.17969 24.4878 8.01719 24.5822 7.84813 24.5822Z" fill="#9CA3AF"/>
<path d="M24.8344 7.71124C24.6853 7.71124 24.5394 7.63843 24.4519 7.50468C24.3669 7.37468 24.2366 7.28593 24.0847 7.25406C23.9328 7.22249 23.7778 7.25156 23.6481 7.33656C23.4372 7.47468 23.1541 7.41562 23.0159 7.20468C22.8778 6.99343 22.9369 6.71031 23.1481 6.57218C23.4819 6.35343 23.8809 6.27812 24.2716 6.35968C24.6619 6.44124 24.9975 6.67031 25.2159 7.00406C25.3541 7.21531 25.295 7.49843 25.0841 7.63656C25.0069 7.68718 24.92 7.71124 24.8344 7.71124Z" fill="#9CA3AF"/>
</svg>
