<svg width="26" height="26" viewBox="0 0 26 26" fill="none" xmlns="http://www.w3.org/2000/svg">
<path d="M14.1176 2.4493C12.8058 2.21245 9.32181 5.58433 9.32181 5.58433L11.5757 10.0336L15.0373 14.5084L17.8141 17.1381L20.6444 17.8714L22.2491 18.731H17.3054L7.6115 17.2218L6.92494 14.7115L8.33097 15.2929L7.19509 12.4101H8.96228L8.04253 9.40186L9.178 8.97164L9.95353 7.5063L9.32222 5.58473C9.32222 5.58473 8.67912 4.86608 8.42116 4.87664C7.29503 4.9193 5.01353 7.84714 3.67331 9.60458C2.19944 11.5347 0.8125 11.6521 0.8125 11.6521V25.1875H25.1875V18.7306H22.88L21.3834 17.4793L18.9674 16.2277L19.7787 15.6211L17.6333 14.029L16.5604 10.868L17.9579 11.4741L15.8121 8.49105H16.4613L15.524 6.5963L15.1629 3.66195C15.1633 3.66236 14.4548 2.50983 14.1176 2.4493ZM16.4726 19.4895C17.0259 19.6134 17.5626 19.7815 18.1736 19.4838C19.1827 19.0133 19.9164 19.6812 20.8906 19.8096C19.9603 19.9359 19.1925 19.279 18.2459 19.7373C17.3729 20.1419 16.7087 19.6999 15.9144 19.4895H16.4726ZM1.57422 17.0503L12.3744 18.731H1.57422V17.0503ZM6.44516 19.7499C5.81344 19.8717 5.25444 19.4208 4.60931 19.7373C3.91991 20.0545 3.42184 19.6373 2.77428 19.4895H3.27356C3.68387 19.5597 4.08363 19.697 4.52238 19.4895H5.63469C5.89306 19.5796 6.15306 19.6946 6.44516 19.7499ZM4.901 24.1199C3.89025 24.5887 3.15859 23.9225 2.18319 23.7933C3.11391 23.6702 3.88131 24.3267 4.82747 23.8672C5.837 23.396 6.57069 24.0642 7.54528 24.193C6.61497 24.3181 5.84756 23.662 4.901 24.1199ZM11.6643 21.2063C10.9785 21.1242 10.4321 21.3395 9.78534 21.5621C8.60112 21.9692 7.74028 21.1717 6.62553 20.9442C6.67469 20.9345 6.71247 20.9304 6.74456 20.9288C7.30559 20.8605 7.77441 21.1181 8.33056 21.1855C9.01631 21.2692 9.56313 21.0495 10.2095 20.8272C11.3925 20.4226 12.2553 21.2168 13.3689 21.4468C12.7534 21.5751 12.2594 21.2782 11.6643 21.2063ZM17.2502 23.2655C16.066 23.6718 15.2051 22.8755 14.0904 22.6476C14.1295 22.6395 14.1691 22.6344 14.209 22.6322C14.77 22.5631 15.2393 22.8219 15.795 22.889C16.4808 22.9718 17.0276 22.7529 17.6743 22.531C18.8573 22.126 19.7202 22.9202 20.8337 23.1498C20.2178 23.2785 19.7243 22.9816 19.1291 22.9097C18.4429 22.8264 17.8965 23.0433 17.2502 23.2655ZM21.8628 24.412C20.852 24.8808 20.1208 24.2145 19.1453 24.0854C20.0761 23.961 20.8435 24.6188 21.79 24.1593C22.7992 23.688 23.5328 24.3559 24.507 24.4843C23.5767 24.6102 22.8093 23.9537 21.8628 24.412ZM24.5781 21.2371C23.9464 21.359 23.3874 20.9077 22.7427 21.2241C22.0261 21.5536 21.5182 21.0872 20.8341 20.958C20.8764 20.9495 20.906 20.9487 20.9255 20.9495C21.5199 20.8857 22.0557 21.2717 22.6692 20.9715C23.385 20.6387 23.894 21.1075 24.5781 21.2371Z" fill="#9CA3AF"/>
<path d="M17.3087 7.68259L19.4179 12.5588L21.5634 16.2276L22.0318 15.7727L22.618 16.4052L25.1875 17.6946V8.81968C25.1875 8.81968 23.6109 8.04131 23.0604 8.01165C22.7212 7.99256 21.7263 8.36468 21.7263 8.36468L23.8493 11.1971C22.0691 10.584 21.7263 8.36468 21.7263 8.36468C21.7263 8.36468 20.9324 7.76506 20.6444 7.65699C20.3474 7.54487 19.4184 7.50628 19.4184 7.50628L22.2491 13.2133C19.8331 12.7567 20.2479 9.49528 19.4184 7.50628C19.4184 7.50628 18.7838 6.02996 18.445 5.73624C18.1273 5.46121 17.3119 5.56928 16.98 5.33203C16.5917 5.05253 16.1099 3.8874 15.7048 3.66274C15.5789 3.59368 15.1637 3.66274 15.1637 3.66274L16.4438 6.34278L17.3087 7.68259Z" fill="#9CA3AF"/>
</svg>
