<svg width="41" height="40" viewBox="0 0 41 40" fill="none" xmlns="http://www.w3.org/2000/svg">
<path opacity="0.4" d="M5.11665 16.6667C4.39998 16.6667 3.83331 16.1 3.83331 15.3833V11.5333C3.83331 7.01668 7.51665 3.33334 12.0333 3.33334H15.8833C16.6 3.33334 17.1666 3.90001 17.1666 4.61668C17.1666 5.33334 16.6 5.90001 15.8833 5.90001H12.0333C8.91665 5.90001 6.39998 8.43334 6.39998 11.5333V15.3833C6.39998 16.1 5.81665 16.6667 5.11665 16.6667Z" fill="white"/>
<path opacity="0.4" d="M35.8834 16.6667C35.1834 16.6667 34.6 16.1 34.6 15.3833V11.5333C34.6 8.41668 32.0667 5.90001 28.9667 5.90001H25.1167C24.4 5.90001 23.8334 5.31668 23.8334 4.61668C23.8334 3.91668 24.4 3.33334 25.1167 3.33334H28.9667C33.4834 3.33334 37.1667 7.01668 37.1667 11.5333V15.3833C37.1667 16.1 36.6 16.6667 35.8834 16.6667Z" fill="white"/>
<path d="M28.9667 36.6667H26.65C25.95 36.6667 25.3667 36.1 25.3667 35.3833C25.3667 34.6833 25.9334 34.1 26.65 34.1H28.9667C32.0834 34.1 34.6 31.5667 34.6 28.4667V26.1667C34.6 25.4667 35.1667 24.8833 35.8834 24.8833C36.5834 24.8833 37.1667 25.45 37.1667 26.1667V28.4667C37.1667 32.9833 33.4834 36.6667 28.9667 36.6667Z" fill="white"/>
<path d="M15.8833 36.6667H12.0333C7.51665 36.6667 3.83331 32.9833 3.83331 28.4667V24.6167C3.83331 23.9 4.39998 23.3333 5.11665 23.3333C5.83331 23.3333 6.39998 23.9 6.39998 24.6167V28.4667C6.39998 31.5833 8.93331 34.1 12.0333 34.1H15.8833C16.5833 34.1 17.1666 34.6667 17.1666 35.3833C17.1666 36.1 16.6 36.6667 15.8833 36.6667Z" fill="white"/>
<path d="M31.2667 18.7167H29H12H9.73335C9.01668 18.7167 8.45001 19.3 8.45001 20C8.45001 20.7 9.01668 21.2833 9.73335 21.2833H12H29H31.2667C31.9833 21.2833 32.55 20.7 32.55 20C32.55 19.3 31.9833 18.7167 31.2667 18.7167Z" fill="white"/>
<path d="M12 23.2333V23.7833C12 26.55 14.2333 28.7833 17 28.7833H24C26.7667 28.7833 29 26.55 29 23.7833V23.2333C29 23.0333 28.85 22.8833 28.65 22.8833H12.35C12.15 22.8833 12 23.0333 12 23.2333Z" fill="white"/>
<path opacity="0.4" d="M12 16.7667V16.2167C12 13.45 14.2333 11.2167 17 11.2167H24C26.7667 11.2167 29 13.45 29 16.2167V16.7667C29 16.9667 28.85 17.1167 28.65 17.1167H12.35C12.15 17.1167 12 16.9667 12 16.7667Z" fill="white"/>
</svg>
